# xmcd CD database file
#
# Track frame offsets:
#	150
#	12588
#	24572
#	38788
#	52352
#	67046
#	80243
#	93931
#	106506
#	119718
#	133362
#	146129
#	160351
#	174087
#	188316
#	201141
#	214005
#	227482
#	240499
#
# Disc length: 3357 seconds
#
# Revision: 2
# Processed by: cddbd v1.5.1PL0 Copyright (c) Steve Scherf et al.
# Submitted via: CDex 1.51
#
DISCID=0d0d1b13
DTITLE=Billie Holiday - Portrait [Past Perfect #204220, 2002] [CD06] [April in My heart]
DYEAR=1938
DGENRE=Jazz
TTITLE0=Here's Tomorrow Again
TTITLE1=Say It with a Kiss
TTITLE2=April in My Heart
TTITLE3=I'll Never Fail You
TTITLE4=They Say
TTITLE5=You're So Desirable
TTITLE6=You're Gonna See a Lot of Me
TTITLE7=Hello, My Darling
TTITLE8=Let's Dream in the Moonlight
TTITLE9=That's All I Ask of You
TTITLE10=Dream of Life
TTITLE11=What Shall I Say?
TTITLE12=It's Easy to Blame the Weather
TTITLE13=More Than You Know
TTITLE14=Sugar
TTITLE15=You're Too Lovely to Last
TTITLE16=Under a Blue Jungle Moon
TTITLE17=Everything Happens for the Best
TTITLE18=Why Did I Always Depend on You?
EXTD=Volume 6 of a 10-CD set. YEAR: 1938
EXTT0=
EXTT1=
EXTT2=
EXTT3=
EXTT4=
EXTT5=
EXTT6=
EXTT7=
EXTT8=
EXTT9=
EXTT10=
EXTT11=
EXTT12=
EXTT13=
EXTT14=
EXTT15=
EXTT16=
EXTT17=
EXTT18=
PLAYORDER=
